<?xml version="1.0" standalone="no"?>
<!DOCTYPE svg PUBLIC "-//W3C//DTD SVG 20010904//EN"
 "http://www.w3.org/TR/2001/REC-SVG-20010904/DTD/svg10.dtd">
<svg version="1.0" xmlns="http://www.w3.org/2000/svg"
 width="700.000000pt" height="700.000000pt" viewBox="0 0 700.000000 700.000000"
 preserveAspectRatio="xMidYMid meet">
<metadata>
Created by potrace 1.11, written by Peter Selinger 2001-2013
</metadata>
<g transform="translate(0.000000,700.000000) scale(0.100000,-0.100000)"
fill="#000000" stroke="none">
<path d="M5040 6905 c-122 -65 -211 -155 -274 -275 -48 -91 -67 -165 -75 -289
-8 -123 -23 -154 -84 -173 -29 -9 -49 -9 -90 1 -183 45 -274 45 -415 -1 -173
-55 -330 -195 -395 -350 l-15 -36 43 -31 c138 -99 127 -320 -20 -417 l-24 -16
30 -61 c74 -148 206 -266 355 -318 96 -34 124 -50 140 -82 25 -48 20 -92 -19
-155 -54 -88 -74 -133 -92 -203 -31 -116 -27 -252 11 -369 11 -35 19 -46 37
-47 45 -4 174 -36 254 -64 148 -52 304 -147 424 -258 l67 -61 43 15 c118 41
187 85 273 173 104 107 152 108 255 5 103 -103 225 -174 336 -197 17 -4 41 -9
55 -12 31 -6 154 -5 189 2 14 3 45 10 68 16 l42 10 -4 57 c-11 179 155 314
325 265 24 -7 46 -12 48 -10 2 2 17 37 33 76 82 201 54 425 -74 614 -27 38
-31 52 -28 91 5 60 47 103 115 119 48 12 150 63 202 101 74 56 140 130 184
210 41 74 42 82 10 102 -144 92 -149 325 -7 417 15 10 27 25 27 32 0 39 -102
193 -165 247 -171 149 -392 202 -609 147 -100 -26 -141 -22 -178 18 -33 36
-37 47 -39 140 -4 176 -76 342 -199 462 -41 40 -105 90 -115 90 -4 0 -19 9
-34 19 -52 37 -73 35 -106 -11 -95 -132 -320 -125 -408 13 -11 16 -22 29 -25
29 -4 0 -36 -16 -72 -35z m455 -845 c1 -30 -1 -61 -3 -67 -3 -10 -38 -13 -127
-13 l-123 0 1 68 0 69 126 -1 125 -1 1 -55z m544 -336 c-24 -24 -47 -44 -51
-44 -5 0 -47 39 -94 86 l-86 87 49 48 48 48 89 -90 89 -90 -44 -45z m-1155
171 l44 -44 -90 -89 -90 -88 -44 44 c-24 25 -44 48 -44 51 0 9 164 171 172
171 5 0 28 -20 52 -45z m606 -56 c3 -4 5 -73 5 -154 l-1 -146 108 108 c59 59
110 105 112 102 3 -2 44 -42 91 -89 l86 -84 -106 -106 -106 -105 151 -3 150
-3 0 -124 c0 -93 -3 -125 -12 -126 -7 -1 -75 -1 -152 0 -161 1 -159 15 -18
-127 l93 -94 -43 -41 c-24 -23 -64 -63 -89 -88 l-46 -47 -104 103 c-57 57
-106 101 -109 99 -3 -3 -5 -69 -5 -147 l0 -142 -126 -2 -126 -2 0 145 c0 80
-3 147 -5 149 -2 3 -52 -42 -109 -100 l-105 -105 -89 90 -90 90 110 110 109
110 -154 -2 -154 -2 0 125 -1 124 155 3 154 3 -109 109 -108 109 86 85 c47 47
89 86 92 86 4 0 51 -46 106 -101 55 -56 103 -99 106 -95 4 3 6 68 6 143 0 76
1 140 2 143 5 8 239 7 245 -1z m-870 -603 l0 -124 -50 -4 c-88 -6 -86 -10 -85
130 l0 122 67 0 68 0 0 -124z m1632 8 c2 -63 0 -121 -4 -127 -6 -12 -107 -15
-125 -4 -6 4 -9 197 -4 240 1 4 30 7 65 7 l65 0 3 -116z m-1410 -542 l87 -89
-48 -47 -48 -47 -86 86 c-48 48 -87 89 -87 93 0 8 82 92 90 92 3 0 45 -40 92
-88z m1195 42 l45 -46 -88 -89 -88 -89 -48 47 -48 47 28 29 c44 48 146 147
150 147 2 0 24 -21 49 -46z m-546 -263 c3 -24 4 -108 1 -118 -3 -10 -38 -13
-127 -13 l-122 0 -1 53 c-1 86 -7 82 128 83 66 0 120 -2 121 -5z"/>
<path d="M5272 5327 c-38 -39 -42 -47 -42 -95 0 -47 4 -56 40 -93 41 -42 50
-45 141 -40 8 1 33 19 55 41 39 38 41 43 39 96 -2 50 -6 60 -41 95 -35 36 -42
39 -94 39 -53 0 -58 -3 -98 -43z"/>
<path d="M2055 4894 c-33 -14 -67 -32 -76 -40 -8 -8 -19 -14 -24 -14 -18 0
-145 -99 -206 -160 -116 -118 -203 -261 -248 -410 -36 -120 -41 -153 -45 -297
-4 -129 -14 -154 -78 -183 -37 -16 -44 -16 -91 -3 -154 44 -232 56 -347 57
-58 0 -179 -12 -190 -19 -4 -2 -20 -6 -36 -9 -51 -9 -156 -47 -219 -78 -196
-99 -351 -256 -450 -454 -61 -123 -59 -137 18 -184 131 -78 184 -270 112 -405
-32 -60 -56 -88 -115 -128 -25 -17 -48 -35 -53 -41 -21 -30 44 -175 130 -291
129 -174 290 -289 507 -364 102 -34 122 -50 137 -104 13 -48 4 -75 -48 -154
-101 -150 -154 -324 -158 -518 -5 -180 19 -296 92 -456 45 -99 57 -104 154
-72 47 16 99 25 144 26 61 2 80 -3 136 -30 138 -68 195 -201 165 -385 -6 -40
-4 -50 13 -67 12 -12 27 -21 33 -22 7 0 20 -2 28 -4 244 -60 530 -19 744 106
93 55 145 97 236 190 84 86 109 102 148 96 50 -9 67 -21 157 -112 265 -269
628 -369 988 -273 92 24 102 37 91 111 -11 72 -11 87 -1 132 39 189 228 297
415 236 98 -32 101 -29 172 134 56 128 82 377 56 525 -25 139 -82 281 -159
394 -46 68 -56 119 -33 164 21 40 49 59 116 79 256 74 489 271 610 513 54 110
57 125 22 158 -16 15 -45 38 -65 52 -87 61 -136 199 -113 316 14 72 87 164
165 210 46 27 48 51 7 138 -44 96 -109 194 -178 268 -60 65 -186 168 -205 168
-7 0 -13 4 -13 8 0 20 -236 112 -320 126 -19 3 -48 8 -65 11 -45 9 -193 10
-260 1 -33 -4 -91 -17 -130 -28 -194 -57 -255 -19 -254 157 2 121 -10 193 -47
310 -89 274 -279 489 -537 610 -93 43 -116 40 -151 -20 -55 -93 -144 -146
-258 -153 -70 -4 -82 -2 -140 26 -71 33 -94 52 -138 117 -29 41 -57 66 -77 65
-4 -1 -35 -12 -68 -26z m535 -924 l0 -126 -122 2 c-68 1 -125 2 -128 3 -4 1
-4 178 -1 236 1 6 49 10 126 11 l125 0 0 -126z m-1149 -316 c24 -23 63 -61 86
-85 l43 -45 -89 -88 -88 -88 -87 86 c-47 47 -86 89 -86 93 0 11 163 174 171
171 4 -2 26 -22 50 -44z m2185 -40 l86 -85 -49 -52 c-26 -29 -66 -69 -89 -89
l-40 -37 -88 88 -87 87 83 87 c46 47 86 86 90 87 4 0 46 -38 94 -86z m-1034
-416 c3 -359 4 -393 20 -396 11 -2 113 92 292 271 l275 274 87 -88 88 -89 -39
-41 c-22 -22 -145 -145 -273 -272 -168 -168 -232 -238 -230 -252 3 -20 12 -20
396 -23 l392 -2 0 -125 0 -125 -392 -2 c-384 -3 -393 -3 -396 -23 -2 -14 47
-70 175 -197 98 -97 221 -220 273 -273 l95 -95 -89 -89 -88 -89 -275 275
c-181 181 -280 273 -291 271 -16 -3 -17 -35 -20 -396 -2 -364 -3 -392 -20
-393 -73 -2 -226 1 -230 5 -2 3 -5 180 -6 393 -1 380 -1 388 -21 391 -14 1
-94 -72 -289 -268 -149 -148 -273 -270 -277 -270 -4 0 -45 38 -92 85 l-85 85
274 275 c225 224 274 279 269 295 -6 20 -15 20 -396 20 -363 0 -389 1 -390 18
-4 85 -3 225 2 228 4 2 180 4 392 4 370 1 386 2 392 20 5 15 -52 77 -269 294
l-276 276 87 85 c48 47 91 84 95 83 5 -2 129 -124 277 -272 219 -219 272 -267
289 -262 19 6 20 14 18 396 l-1 390 127 0 128 0 2 -392z m-1517 -740 l-1 -123
-127 -3 -126 -3 1 126 1 125 126 0 127 0 -1 -122z m3031 -3 l-1 -125 -126 0
-127 0 -1 125 -1 125 128 0 128 0 0 -125z m-2579 -1114 c-23 -25 -63 -66 -90
-90 l-48 -44 -84 84 c-47 46 -85 87 -85 91 0 4 39 46 87 94 l86 86 88 -88 88
-88 -42 -45z m2094 134 c46 -47 86 -88 88 -90 2 -2 -36 -43 -83 -91 -99 -99
-79 -100 -194 15 l-74 73 28 29 c16 16 54 56 84 88 30 32 58 59 61 60 3 0 43
-37 90 -84z m-1031 -535 l0 -126 -125 0 c-124 0 -125 0 -126 23 0 13 -1 61 -1
108 0 47 1 93 1 103 1 16 13 18 126 18 l125 0 0 -126z"/>
<path d="M2405 2565 c-36 -18 -65 -66 -65 -107 0 -128 164 -175 230 -65 26 42
25 86 -3 128 -39 58 -100 74 -162 44z"/>
</g>
</svg>
