<?xml version="1.0" standalone="no"?>
<!DOCTYPE svg PUBLIC "-//W3C//DTD SVG 20010904//EN"
 "http://www.w3.org/TR/2001/REC-SVG-20010904/DTD/svg10.dtd">
<svg version="1.0" xmlns="http://www.w3.org/2000/svg"
 width="633.000000pt" height="633.000000pt" viewBox="0 0 633.000000 633.000000"
 preserveAspectRatio="xMidYMid meet">
<metadata>
Created by potrace 1.11, written by Peter Selinger 2001-2013
</metadata>
<g transform="translate(0.000000,633.000000) scale(0.100000,-0.100000)"
fill="#000000" stroke="none">
<path d="M1790 5869 c-53 -32 -79 -58 -122 -124 -48 -74 -81 -178 -76 -244 l3
-49 -30 16 c-40 21 -183 28 -254 12 -69 -15 -168 -66 -188 -97 -11 -16 -13
-36 -8 -71 6 -47 5 -49 -29 -76 -42 -31 -46 -60 -19 -128 45 -115 162 -231
268 -264 l53 -17 -29 -37 c-47 -59 -71 -133 -76 -240 -5 -96 5 -159 30 -194 7
-10 35 -22 62 -27 27 -5 52 -15 57 -22 6 -9 -15 -13 -85 -18 -51 -3 -102 -11
-114 -17 -12 -7 -24 -12 -26 -12 -2 0 -6 35 -9 78 -7 127 -89 272 -184 328
l-45 27 -49 -23 -48 -23 -30 22 c-52 37 -86 27 -165 -48 -82 -78 -137 -200
-137 -304 0 -52 -2 -58 -17 -52 -53 21 -97 27 -183 22 -109 -5 -184 -30 -243
-78 -36 -30 -39 -35 -37 -83 3 -70 4 -70 -30 -89 -26 -16 -30 -24 -30 -60 0
-122 153 -297 295 -337 l46 -13 -25 -26 c-110 -115 -123 -445 -18 -466 65 -13
76 -20 86 -54 15 -51 44 -65 129 -58 128 9 255 75 323 166 l37 50 28 -42 c49
-74 152 -140 260 -167 l46 -12 -25 -25 c-20 -20 -24 -31 -19 -63 5 -37 3 -40
-64 -95 -104 -87 -417 -410 -497 -514 -115 -149 -200 -293 -256 -433 -29 -73
-81 -377 -67 -391 26 -26 931 283 1144 390 26 13 51 21 56 19 5 -3 11 -19 14
-36 15 -72 171 -67 316 10 64 35 161 129 161 158 1 10 9 1 20 -19 51 -96 208
-189 336 -197 83 -5 94 0 125 59 17 35 23 38 66 41 45 3 49 6 73 48 22 40 25
56 25 155 0 127 -17 190 -71 260 l-33 44 42 12 c126 34 274 191 294 312 5 31
1 40 -31 73 -20 20 -36 38 -36 39 0 1 5 16 11 34 16 46 5 75 -43 110 l-42 31
46 0 c25 0 59 -7 74 -15 16 -8 49 -15 74 -15 l45 0 3 -57 c2 -54 1 -58 -33
-86 -34 -28 -36 -32 -30 -71 4 -22 18 -63 31 -90 61 -123 159 -204 291 -242 8
-2 0 -21 -21 -53 -53 -79 -70 -141 -71 -256 0 -115 21 -175 65 -187 78 -20 83
-23 94 -58 19 -60 85 -75 199 -45 109 28 199 87 257 167 l27 37 36 -48 c69
-94 224 -171 342 -171 56 0 69 9 99 68 15 29 21 32 60 32 52 0 71 18 92 86 16
52 18 178 5 237 -5 20 -8 37 -7 37 2 0 34 -43 71 -96 63 -89 67 -97 49 -107
-53 -30 -117 -105 -156 -184 -38 -75 -42 -91 -42 -161 l-1 -78 -28 14 c-104
52 -323 21 -421 -59 l-38 -32 6 -58 c6 -51 5 -59 -13 -68 -60 -32 -65 -76 -21
-168 50 -107 156 -205 257 -238 l51 -17 -33 -44 c-48 -62 -75 -157 -75 -259 0
-129 31 -194 92 -195 44 0 57 -10 68 -51 14 -50 43 -63 130 -56 123 10 252 78
319 169 l35 46 26 -36 c69 -95 200 -169 317 -179 83 -7 105 3 133 57 18 36 23
39 67 42 46 3 49 5 71 49 59 118 28 342 -60 436 -16 18 -18 23 -7 27 8 2 31
10 51 16 20 6 53 22 73 36 20 13 38 24 39 24 14 0 98 -166 106 -210 17 -88 42
-110 130 -110 14 0 49 -11 75 -25 l49 -24 75 19 c41 11 96 20 121 20 62 0 82
17 91 76 4 27 11 68 15 91 8 50 -2 65 -55 90 -79 38 -397 387 -516 568 -22 33
-78 99 -124 148 -46 48 -82 89 -80 91 2 2 24 14 49 26 66 33 119 78 151 128
l28 44 14 -29 c42 -80 182 -170 302 -193 87 -17 123 -5 156 51 20 34 31 44 50
42 80 -7 111 44 117 189 5 117 -19 212 -72 281 l-33 44 44 11 c101 27 212 126
264 237 37 78 36 99 -6 146 -30 34 -33 42 -25 64 17 44 11 70 -22 102 -91 86
-277 127 -404 88 -27 -8 -50 -15 -51 -15 -2 0 -3 22 -3 49 0 104 -71 256 -153
328 -46 40 -81 50 -121 34 -52 -22 -72 -23 -85 -7 -10 12 -6 26 27 83 22 37
78 145 126 240 143 284 240 414 398 534 90 69 95 76 75 97 -15 14 -34 14 -184
4 -421 -31 -661 -121 -1114 -418 -174 -114 -267 -191 -340 -282 -68 -84 -130
-203 -154 -297 -13 -49 -45 -280 -45 -321 0 -6 -18 -14 -39 -17 -22 -3 -52
-11 -68 -19 l-28 -14 3 56 c4 63 -23 155 -65 228 -33 56 -103 125 -143 142
-28 12 -37 11 -76 -8 l-44 -22 -39 26 c-37 24 -40 25 -76 10 -91 -38 -192
-187 -216 -318 -7 -38 -16 -68 -21 -68 -33 0 -353 32 -393 40 -30 5 -173 69
-355 158 -168 82 -340 164 -383 183 -43 19 -82 41 -87 50 -5 8 -5 33 0 55 8
33 6 42 -12 61 l-20 22 52 90 c67 118 117 179 227 274 145 126 307 242 250
179 -29 -32 -78 -150 -88 -214 -13 -77 -3 -110 43 -137 52 -31 60 -41 54 -67
-9 -36 10 -63 59 -85 59 -26 149 -34 231 -20 85 15 139 38 187 81 l37 32 0
-24 c0 -40 56 -139 107 -192 62 -62 116 -99 175 -120 55 -18 71 -14 115 27 32
30 34 30 73 17 37 -12 43 -12 68 7 97 71 150 295 103 431 l-19 54 32 -6 c46
-8 158 19 226 55 32 17 85 58 116 91 61 64 64 80 33 155 -12 29 -11 35 9 62
29 40 28 58 -7 113 -62 98 -207 179 -333 186 l-77 5 15 30 c24 46 29 170 10
250 -18 78 -43 130 -81 171 -24 26 -30 28 -80 23 -52 -5 -55 -4 -80 29 -33 44
-76 45 -160 5 -110 -52 -209 -162 -236 -262 l-12 -46 -49 34 c-68 49 -151 73
-255 73 -92 0 -154 -14 -177 -39 -8 -9 -18 -36 -23 -61 -7 -38 -13 -47 -39
-55 -57 -18 -64 -31 -64 -110 0 -103 50 -235 109 -289 12 -11 21 -22 21 -26 0
-4 -27 -24 -61 -44 -207 -123 -445 -355 -580 -564 -26 -41 -49 -70 -52 -65 -3
5 -11 47 -18 93 -12 86 -17 465 -6 476 3 4 29 -8 57 -26 65 -42 157 -70 229
-70 63 0 75 8 105 67 14 28 21 32 63 35 47 3 49 5 73 53 22 43 25 63 25 150 0
114 -17 176 -69 254 l-33 49 41 12 c123 36 264 185 290 307 6 27 2 37 -30 73
-35 39 -37 43 -26 74 19 51 15 62 -33 104 -66 58 -140 83 -261 89 -87 5 -107
3 -148 -15 l-47 -21 7 33 c21 114 -95 340 -200 390 -34 16 -38 16 -85 -5 l-50
-21 -27 21 c-34 26 -60 26 -104 0z m282 -528 c80 -31 159 -105 200 -189 31
-62 33 -74 33 -167 0 -92 -3 -106 -32 -167 -139 -293 -556 -294 -700 -1 -25
53 -28 68 -28 163 0 93 3 112 27 162 29 63 93 137 145 169 100 62 241 73 355
30z m1441 -641 c190 -71 290 -281 229 -478 -44 -138 -152 -233 -299 -262 -85
-17 -159 -6 -242 36 -81 40 -142 102 -179 182 -24 50 -27 69 -27 162 0 93 3
112 27 162 86 185 298 270 491 198z m-1598 -594 l0 -324 -90 63 -89 63 3 42
c2 36 -2 47 -30 76 -31 32 -32 35 -20 74 14 46 7 65 -39 103 l-30 25 33 7 c83
19 236 125 252 176 4 10 7 19 8 19 1 0 2 -146 2 -324z m-934 48 c112 -33 190
-101 243 -214 28 -58 31 -74 30 -155 0 -69 -6 -104 -23 -147 -31 -80 -106
-159 -189 -200 -62 -31 -73 -33 -172 -33 -93 0 -111 3 -162 27 -152 71 -247
250 -219 412 41 233 267 376 492 310z m825 -452 l112 -92 -5 -43 c-5 -39 -2
-46 27 -70 17 -15 36 -27 41 -27 5 0 9 -4 9 -10 0 -17 -26 -11 -45 10 -72 79
-255 -98 -295 -287 l-11 -50 -77 -21 c-79 -22 -212 -36 -212 -22 0 16 27 29
69 32 39 3 46 7 63 39 59 115 40 312 -43 426 l-30 42 28 7 c57 14 126 57 181
112 31 31 62 54 67 51 6 -3 60 -47 121 -97z m510 -376 c94 -32 168 -67 234
-110 l55 -35 -151 -1 -151 0 -13 43 c-7 23 -21 59 -31 79 -19 36 -22 48 -16
48 2 0 35 -11 73 -24z m2813 -233 c1 -8 -6 -8 -30 0 l-30 12 22 18 c22 18 23
18 30 0 4 -10 8 -23 8 -30z m-1204 -128 c293 -140 291 -559 -3 -698 -61 -29
-76 -32 -167 -32 -87 0 -107 3 -156 26 -322 151 -293 615 44 725 27 9 75 13
132 11 75 -3 100 -8 150 -32z m1614 24 c201 -46 336 -245 301 -441 -38 -211
-241 -357 -442 -320 -133 25 -236 102 -291 220 -29 61 -32 76 -32 162 0 86 3
101 32 162 78 165 260 257 432 217z m-3406 -52 c79 -36 158 -113 193 -190 26
-56 29 -72 29 -167 0 -95 -3 -111 -29 -163 -36 -74 -109 -147 -183 -183 -52
-26 -68 -29 -163 -29 -95 0 -111 3 -167 29 -76 35 -153 113 -191 193 -24 51
-27 70 -27 158 0 87 4 107 27 157 48 104 152 191 261 219 64 16 188 5 250 -24z
m2517 -30 c0 -15 -9 -29 -25 -37 -22 -12 -27 -11 -45 5 -27 25 -25 30 13 43
49 15 57 14 57 -11z m-17 -240 c56 -94 204 -207 274 -207 24 0 24 -1 -10 -40
-29 -34 -51 -79 -73 -149 -4 -14 -119 87 -253 223 l-74 75 41 46 c24 25 48 56
54 70 6 14 12 25 14 25 1 0 13 -19 27 -43z m169 -1105 c79 -38 149 -110 186
-190 24 -50 27 -69 27 -157 0 -88 -3 -107 -27 -157 -37 -80 -107 -152 -187
-191 -61 -30 -73 -32 -166 -32 -91 0 -106 3 -165 31 -83 39 -145 101 -184 184
-28 59 -31 74 -31 165 0 89 3 107 28 160 32 69 104 147 162 177 73 38 117 48
206 45 74 -3 96 -8 151 -35z"/>
<path d="M1903 5193 c-21 -8 -15 -43 6 -43 11 0 23 5 27 11 8 14 -17 38 -33
32z"/>
<path d="M1974 5165 c-4 -9 -2 -21 4 -27 15 -15 44 -1 40 19 -4 23 -36 29 -44
8z"/>
<path d="M1814 5155 c-7 -18 3 -35 21 -35 15 0 24 19 18 38 -6 17 -32 15 -39
-3z"/>
<path d="M1890 5100 c0 -13 7 -20 20 -20 13 0 20 7 20 20 0 13 -7 20 -20 20
-13 0 -20 -7 -20 -20z"/>
<path d="M2034 5109 c-3 -6 0 -17 7 -25 18 -17 44 -2 36 20 -7 18 -33 21 -43
5z"/>
<path d="M1759 5094 c-9 -11 -9 -18 -1 -26 14 -14 42 -3 42 16 0 20 -27 27
-41 10z"/>
<path d="M1954 5089 c-3 -6 0 -17 7 -25 18 -17 44 -2 36 20 -7 18 -33 21 -43
5z"/>
<path d="M1830 5070 c0 -13 7 -20 20 -20 13 0 20 7 20 20 0 13 -7 20 -20 20
-13 0 -20 -7 -20 -20z"/>
<path d="M1892 5054 c-31 -21 -30 -69 2 -89 28 -19 58 -9 76 26 9 16 14 18 26
8 19 -15 40 2 31 25 -7 18 -32 21 -42 7 -3 -5 -16 1 -30 15 -28 28 -33 29 -63
8z"/>
<path d="M2073 5043 c-21 -8 -15 -43 6 -43 11 0 23 5 27 11 8 14 -17 38 -33
32z"/>
<path d="M1817 5024 c-15 -15 -7 -45 11 -42 9 2 17 12 17 22 0 20 -16 31 -28
20z"/>
<path d="M1740 5000 c0 -13 7 -20 20 -20 13 0 20 7 20 20 0 13 -7 20 -20 20
-13 0 -20 -7 -20 -20z"/>
<path d="M1964 4959 c-9 -15 12 -33 30 -26 9 4 16 13 16 22 0 17 -35 21 -46 4z"/>
<path d="M1840 4940 c0 -13 7 -20 20 -20 13 0 20 7 20 20 0 13 -7 20 -20 20
-13 0 -20 -7 -20 -20z"/>
<path d="M2044 4949 c-3 -6 0 -17 7 -25 18 -17 44 -2 36 20 -7 18 -33 21 -43
5z"/>
<path d="M1765 4930 c-9 -15 4 -30 26 -30 12 0 19 7 19 20 0 21 -33 29 -45 10z"/>
<path d="M1905 4930 c-4 -7 -3 -16 3 -22 14 -14 45 -2 40 15 -6 16 -34 21 -43
7z"/>
<path d="M1993 4884 c-3 -8 -1 -20 5 -26 15 -15 43 8 35 28 -7 19 -32 18 -40
-2z"/>
<path d="M1831 4876 c-9 -10 -8 -16 4 -26 19 -16 41 1 32 24 -8 20 -21 20 -36
2z"/>
<path d="M1910 4851 c0 -19 23 -35 34 -24 14 15 5 43 -14 43 -13 0 -20 -7 -20
-19z"/>
<path d="M3319 4534 c-9 -11 -9 -18 -1 -26 14 -14 42 -3 42 16 0 20 -27 27
-41 10z"/>
<path d="M3403 4539 c-16 -16 -5 -39 19 -39 14 0 19 6 16 22 -4 25 -19 33 -35
17z"/>
<path d="M3483 4503 c-21 -8 -15 -43 6 -43 11 0 23 5 27 11 8 14 -17 38 -33
32z"/>
<path d="M3243 4484 c-8 -22 18 -37 36 -20 7 8 10 19 7 25 -10 16 -36 13 -43
-5z"/>
<path d="M3376 4464 c-4 -10 -2 -22 3 -27 14 -14 43 0 39 20 -4 24 -34 28 -42
7z"/>
<path d="M3317 4464 c-15 -15 -7 -45 11 -42 9 2 17 12 17 22 0 20 -16 31 -28
20z"/>
<path d="M3434 4425 c-7 -18 3 -35 21 -35 18 0 26 25 12 39 -15 15 -27 14 -33
-4z"/>
<path d="M3203 4414 c-3 -8 -1 -20 5 -26 15 -15 43 8 35 28 -7 19 -32 18 -40
-2z"/>
<path d="M3514 4419 c-3 -6 0 -17 8 -25 13 -13 16 -13 27 0 7 8 10 20 6 26 -8
13 -32 13 -41 -1z"/>
<path d="M3336 4398 c-21 -30 -20 -44 4 -68 24 -24 53 -26 74 -4 19 18 21 65
4 82 -20 20 -65 14 -82 -10z"/>
<path d="M3270 4390 c0 -13 7 -20 20 -20 13 0 20 7 20 20 0 13 -7 20 -20 20
-13 0 -20 -7 -20 -20z"/>
<path d="M3443 4354 c-3 -8 -1 -20 5 -26 15 -15 43 8 35 28 -7 19 -32 18 -40
-2z"/>
<path d="M3204 4335 c-7 -18 3 -35 21 -35 21 0 28 19 15 35 -16 19 -29 19 -36
0z"/>
<path d="M3514 4335 c-4 -9 -2 -21 4 -27 15 -15 44 -1 40 19 -4 23 -36 29 -44
8z"/>
<path d="M3280 4320 c0 -13 7 -20 20 -20 13 0 20 7 20 20 0 13 -7 20 -20 20
-13 0 -20 -7 -20 -20z"/>
<path d="M3400 4290 c0 -16 5 -21 23 -18 12 2 22 10 22 18 0 8 -10 16 -22 18
-18 3 -23 -2 -23 -18z"/>
<path d="M3335 4290 c-4 -7 -3 -16 3 -22 14 -14 45 -2 40 15 -6 16 -34 21 -43
7z"/>
<path d="M3474 4265 c-7 -18 3 -35 22 -35 20 0 30 30 13 41 -20 12 -29 11 -35
-6z"/>
<path d="M3244 4259 c-9 -15 12 -33 30 -26 9 4 16 13 16 22 0 17 -35 21 -46 4z"/>
<path d="M3320 4210 c0 -13 7 -20 20 -20 13 0 20 7 20 20 0 13 -7 20 -20 20
-13 0 -20 -7 -20 -20z"/>
<path d="M3400 4210 c0 -16 5 -21 23 -18 12 2 22 10 22 18 0 8 -10 16 -22 18
-18 3 -23 -2 -23 -18z"/>
<path d="M840 3985 c-15 -18 -5 -35 21 -35 12 0 19 7 19 19 0 24 -25 34 -40
16z"/>
<path d="M921 3966 c-17 -20 13 -43 34 -26 12 10 13 16 4 26 -6 8 -15 14 -19
14 -4 0 -13 -6 -19 -14z"/>
<path d="M761 3956 c-9 -10 -8 -16 4 -26 19 -16 41 1 32 24 -8 20 -21 20 -36
2z"/>
<path d="M993 3923 c-21 -8 -15 -43 6 -43 11 0 23 5 27 11 8 14 -17 38 -33 32z"/>
<path d="M840 3900 c0 -13 7 -20 20 -20 13 0 20 7 20 20 0 13 -7 20 -20 20
-13 0 -20 -7 -20 -20z"/>
<path d="M710 3900 c-18 -11 -4 -42 17 -38 10 2 19 10 21 19 4 19 -19 31 -38
19z"/>
<path d="M907 3894 c-16 -16 -6 -35 16 -32 12 2 22 10 22 18 0 16 -26 25 -38
14z"/>
<path d="M775 3880 c-9 -15 4 -30 26 -30 12 0 19 7 19 20 0 21 -33 29 -45 10z"/>
<path d="M839 3857 c-25 -20 -31 -48 -14 -73 17 -26 62 -33 83 -12 20 20 14
65 -10 82 -27 19 -38 19 -59 3z"/>
<path d="M1016 3843 c-14 -15 -5 -43 14 -43 13 0 20 7 20 19 0 19 -23 35 -34
24z"/>
<path d="M934 3829 c-3 -6 0 -17 8 -25 13 -13 16 -13 27 0 7 8 10 20 6 26 -8
13 -32 13 -41 -1z"/>
<path d="M690 3815 c-15 -18 -5 -35 21 -35 12 0 19 7 19 19 0 24 -25 34 -40
16z"/>
<path d="M754 3815 c-4 -9 -2 -21 4 -27 15 -15 44 -1 40 19 -4 23 -36 29 -44
8z"/>
<path d="M921 3771 c-17 -11 -7 -41 13 -41 22 0 30 20 15 36 -9 8 -19 10 -28
5z"/>
<path d="M790 3755 c-10 -11 -10 -19 -2 -27 15 -15 44 -2 40 19 -4 23 -22 27
-38 8z"/>
<path d="M990 3741 c0 -24 25 -34 40 -16 15 18 5 35 -21 35 -12 0 -19 -7 -19
-19z"/>
<path d="M712 3723 c4 -22 43 -25 43 -3 0 8 -11 16 -23 18 -19 3 -23 0 -20
-15z"/>
<path d="M850 3720 c0 -13 7 -20 20 -20 13 0 20 7 20 20 0 13 -7 20 -20 20
-13 0 -20 -7 -20 -20z"/>
<path d="M937 3686 c-8 -20 20 -43 35 -28 14 14 3 42 -16 42 -7 0 -16 -6 -19
-14z"/>
<path d="M776 3681 c-10 -16 5 -42 23 -39 21 4 21 42 -1 46 -9 2 -19 -1 -22
-7z"/>
<path d="M860 3650 c0 -13 7 -20 20 -20 13 0 20 7 20 20 0 13 -7 20 -20 20
-13 0 -20 -7 -20 -20z"/>
<path d="M3724 2815 c-4 -9 -2 -21 4 -27 15 -15 44 -1 40 19 -4 23 -36 29 -44
8z"/>
<path d="M3804 2799 c-10 -17 23 -46 37 -32 7 7 9 19 6 27 -7 18 -33 21 -43 5z"/>
<path d="M3644 2785 c-4 -9 -2 -21 4 -27 15 -15 44 -1 40 19 -4 23 -36 29 -44
8z"/>
<path d="M3731 2751 c-17 -11 -7 -41 13 -41 22 0 30 20 15 36 -9 8 -19 10 -28
5z"/>
<path d="M3873 2749 c-16 -16 -5 -39 19 -39 14 0 19 6 16 22 -4 25 -19 33 -35
17z"/>
<path d="M3594 2725 c-7 -18 3 -35 21 -35 18 0 26 25 12 39 -15 15 -27 14 -33
-4z"/>
<path d="M3790 2710 c0 -13 7 -20 20 -20 13 0 20 7 20 20 0 13 -7 20 -20 20
-13 0 -20 -7 -20 -20z"/>
<path d="M3662 2703 c4 -22 43 -25 43 -3 0 8 -11 16 -23 18 -19 3 -23 0 -20
-15z"/>
<path d="M3722 2684 c-41 -29 -19 -94 33 -94 52 0 74 65 33 94 -12 9 -27 16
-33 16 -6 0 -21 -7 -33 -16z"/>
<path d="M3896 2664 c-4 -10 -2 -22 3 -27 14 -14 43 0 39 20 -4 24 -34 28 -42
7z"/>
<path d="M3820 2650 c0 -13 7 -20 20 -20 13 0 20 7 20 20 0 13 -7 20 -20 20
-13 0 -20 -7 -20 -20z"/>
<path d="M3574 2645 c-7 -18 3 -35 21 -35 21 0 28 19 15 35 -16 19 -29 19 -36
0z"/>
<path d="M3643 2644 c-3 -8 -1 -20 5 -26 15 -15 43 8 35 28 -7 19 -32 18 -40
-2z"/>
<path d="M3803 2594 c-8 -21 13 -42 28 -27 13 13 5 43 -11 43 -6 0 -13 -7 -17
-16z"/>
<path d="M3674 2585 c-7 -18 3 -35 21 -35 18 0 26 25 12 39 -15 15 -27 14 -33
-4z"/>
<path d="M3880 2570 c0 -13 7 -20 20 -20 13 0 20 7 20 20 0 13 -7 20 -20 20
-13 0 -20 -7 -20 -20z"/>
<path d="M3604 2566 c-7 -19 3 -36 22 -36 10 0 14 8 12 22 -4 26 -26 36 -34
14z"/>
<path d="M3747 2574 c-15 -15 -7 -45 11 -42 9 2 17 12 17 22 0 20 -16 31 -28
20z"/>
<path d="M3823 2514 c-8 -22 18 -37 36 -20 7 8 10 19 7 25 -10 16 -36 13 -43
-5z"/>
<path d="M3663 2504 c-8 -22 18 -37 36 -20 7 8 10 19 7 25 -10 16 -36 13 -43
-5z"/>
<path d="M3749 2494 c-9 -11 -9 -18 -1 -26 14 -14 42 -3 42 16 0 20 -27 27
-41 10z"/>
<path d="M5424 2805 c-8 -19 12 -36 33 -28 19 7 12 37 -10 41 -9 2 -20 -4 -23
-13z"/>
<path d="M5509 2794 c-9 -11 -9 -18 -1 -26 14 -14 42 -3 42 16 0 20 -27 27
-41 10z"/>
<path d="M5349 2784 c-9 -11 -9 -18 -1 -26 14 -14 42 -3 42 16 0 20 -27 27
-41 10z"/>
<path d="M5424 2735 c-4 -9 -2 -21 4 -27 15 -15 44 -1 40 19 -4 23 -36 29 -44
8z"/>
<path d="M5567 2736 c-8 -20 20 -43 35 -28 14 14 3 42 -16 42 -7 0 -16 -6 -19
-14z"/>
<path d="M5290 2711 c0 -26 17 -36 35 -21 18 15 8 40 -16 40 -12 0 -19 -7 -19
-19z"/>
<path d="M5493 2714 c-8 -21 13 -42 28 -27 13 13 5 43 -11 43 -6 0 -13 -7 -17
-16z"/>
<path d="M5364 2705 c-4 -9 -2 -21 4 -27 15 -15 44 -1 40 19 -4 23 -36 29 -44
8z"/>
<path d="M5416 2674 c-25 -24 -20 -61 10 -81 24 -15 29 -15 53 -2 49 28 32 99
-24 99 -13 0 -31 -7 -39 -16z"/>
<path d="M5524 2656 c-7 -19 3 -36 22 -36 10 0 14 8 12 22 -4 26 -26 36 -34
14z"/>
<path d="M5594 2659 c-10 -17 23 -46 37 -32 7 7 9 19 6 27 -7 18 -33 21 -43 5z"/>
<path d="M5274 2635 c-7 -18 3 -35 21 -35 15 0 28 27 19 41 -8 14 -34 11 -40
-6z"/>
<path d="M5340 2630 c0 -16 5 -21 23 -18 12 2 22 10 22 18 0 8 -10 16 -22 18
-18 3 -23 -2 -23 -18z"/>
<path d="M5500 2580 c0 -13 7 -20 20 -20 13 0 20 7 20 20 0 13 -7 20 -20 20
-13 0 -20 -7 -20 -20z"/>
<path d="M5377 2584 c-16 -16 -6 -35 16 -32 12 2 22 10 22 18 0 16 -26 25 -38
14z"/>
<path d="M5583 2574 c-8 -21 13 -42 28 -27 13 13 5 43 -11 43 -6 0 -13 -7 -17
-16z"/>
<path d="M5302 2548 c2 -13 10 -23 18 -23 8 0 16 10 18 23 3 17 -2 22 -18 22
-16 0 -21 -5 -18 -22z"/>
<path d="M5442 2548 c2 -12 10 -23 18 -23 22 0 19 39 -3 43 -15 3 -18 -1 -15
-20z"/>
<path d="M5531 2521 c-17 -11 -7 -41 13 -41 22 0 30 20 15 36 -9 8 -19 10 -28
5z"/>
<path d="M5364 2505 c-7 -18 3 -35 21 -35 21 0 28 19 15 35 -16 19 -29 19 -36
0z"/>
<path d="M5444 2485 c-4 -9 -2 -21 4 -27 15 -15 44 -1 40 19 -4 23 -36 29 -44
8z"/>
<path d="M1951 2791 c-17 -11 -7 -41 13 -41 22 0 30 20 15 36 -9 8 -19 10 -28
5z"/>
<path d="M2024 2765 c-4 -9 -2 -21 4 -27 15 -15 44 -1 40 19 -4 23 -36 29 -44
8z"/>
<path d="M1864 2755 c-4 -9 -2 -21 4 -27 15 -15 44 -1 40 19 -4 23 -36 29 -44
8z"/>
<path d="M1940 2700 c0 -16 5 -21 23 -18 12 2 22 10 22 18 0 8 -10 16 -22 18
-18 3 -23 -2 -23 -18z"/>
<path d="M2085 2710 c-9 -15 4 -30 26 -30 12 0 19 7 19 20 0 21 -33 29 -45 10z"/>
<path d="M1813 2699 c-16 -16 -5 -39 19 -39 14 0 19 6 16 22 -4 25 -19 33 -35
17z"/>
<path d="M2010 2680 c0 -13 7 -20 20 -20 13 0 20 7 20 20 0 13 -7 20 -20 20
-13 0 -20 -7 -20 -20z"/>
<path d="M1880 2670 c0 -13 7 -20 20 -20 13 0 20 7 20 20 0 13 -7 20 -20 20
-13 0 -20 -7 -20 -20z"/>
<path d="M1942 2654 c-51 -35 -2 -120 52 -92 41 22 47 57 16 88 -24 24 -38 25
-68 4z"/>
<path d="M2121 2641 c-17 -11 -7 -41 13 -41 22 0 30 20 15 36 -9 8 -19 10 -28
5z"/>
<path d="M2042 2618 c2 -13 10 -23 18 -23 8 0 16 10 18 23 3 17 -2 22 -18 22
-16 0 -21 -5 -18 -22z"/>
<path d="M1803 2623 c-21 -8 -15 -43 6 -43 11 0 23 5 27 11 8 14 -17 38 -33
32z"/>
<path d="M1864 2616 c-7 -19 3 -36 22 -36 10 0 14 8 12 22 -4 26 -26 36 -34
14z"/>
<path d="M2022 2567 c-15 -17 1 -42 23 -33 18 6 17 37 -1 43 -6 2 -16 -2 -22
-10z"/>
<path d="M1894 2556 c-7 -19 3 -36 22 -36 10 0 14 8 12 22 -4 26 -26 36 -34
14z"/>
<path d="M2095 2550 c-9 -15 14 -40 31 -33 22 8 18 43 -5 43 -11 0 -23 -5 -26
-10z"/>
<path d="M1817 2534 c-11 -11 5 -34 24 -34 12 0 19 7 19 20 0 19 -28 28 -43
14z"/>
<path d="M1954 2529 c-9 -15 12 -33 30 -26 9 4 16 13 16 22 0 17 -35 21 -46 4z"/>
<path d="M2043 2484 c-3 -8 -1 -20 5 -26 15 -15 43 8 35 28 -7 19 -32 18 -40
-2z"/>
<path d="M1883 2474 c-7 -18 11 -39 26 -30 17 11 13 46 -4 46 -9 0 -18 -7 -22
-16z"/>
<path d="M1960 2451 c0 -24 25 -34 40 -16 15 18 5 35 -21 35 -12 0 -19 -7 -19
-19z"/>
<path d="M4607 1423 c-15 -14 -7 -43 12 -43 23 0 34 23 18 39 -13 13 -21 14
-30 4z"/>
<path d="M4684 1395 c-7 -18 3 -35 21 -35 15 0 28 27 19 41 -8 14 -34 11 -40
-6z"/>
<path d="M4523 1384 c-3 -8 -1 -20 5 -26 15 -15 43 8 35 28 -7 19 -32 18 -40
-2z"/>
<path d="M4750 1350 c-18 -11 -4 -42 17 -38 10 2 19 10 21 19 4 19 -19 31 -38
19z"/>
<path d="M4600 1330 c0 -13 7 -20 20 -20 13 0 20 7 20 20 0 13 -7 20 -20 20
-13 0 -20 -7 -20 -20z"/>
<path d="M4464 1325 c-4 -9 -2 -21 4 -27 15 -15 44 -1 40 19 -4 23 -36 29 -44
8z"/>
<path d="M4665 1320 c-4 -7 -3 -16 3 -22 14 -14 45 -2 40 15 -6 16 -34 21 -43
7z"/>
<path d="M4540 1300 c0 -13 7 -20 20 -20 13 0 20 7 20 20 0 13 -7 20 -20 20
-13 0 -20 -7 -20 -20z"/>
<path d="M4597 1282 c-20 -22 -22 -63 -5 -80 21 -21 66 -14 83 12 11 17 22 22
40 18 18 -3 25 0 25 12 0 22 -27 31 -45 16 -12 -10 -15 -9 -15 3 0 17 -29 37
-53 37 -8 0 -21 -8 -30 -18z"/>
<path d="M4774 1265 c-7 -18 3 -35 21 -35 21 0 28 19 15 35 -16 19 -29 19 -36
0z"/>
<path d="M4457 1254 c-16 -16 -7 -44 14 -44 15 0 20 5 17 22 -3 22 -19 33 -31
22z"/>
<path d="M4522 1238 c2 -12 10 -23 18 -23 22 0 19 39 -3 43 -15 3 -18 -1 -15
-20z"/>
<path d="M4680 1195 c-10 -11 -10 -19 -2 -27 15 -15 44 -2 40 19 -4 23 -22 27
-38 8z"/>
<path d="M4557 1194 c-15 -15 -7 -45 11 -42 9 2 17 12 17 22 0 20 -16 31 -28
20z"/>
<path d="M4754 1179 c-9 -15 12 -33 30 -26 9 4 16 13 16 22 0 17 -35 21 -46 4z"/>
<path d="M4480 1165 c-10 -11 -10 -19 -2 -27 15 -15 44 -2 40 19 -4 23 -22 27
-38 8z"/>
<path d="M4621 1166 c-14 -17 -7 -36 14 -36 22 0 29 20 13 36 -13 13 -16 13
-27 0z"/>
<path d="M4700 1111 c0 -26 17 -36 35 -21 18 15 8 40 -16 40 -12 0 -19 -7 -19
-19z"/>
<path d="M4537 1106 c-7 -17 18 -40 33 -31 5 3 10 15 10 26 0 23 -35 27 -43 5z"/>
<path d="M4620 1080 c0 -13 7 -20 20 -20 13 0 20 7 20 20 0 13 -7 20 -20 20
-13 0 -20 -7 -20 -20z"/>
</g>
</svg>
