<svg xmlns="http://www.w3.org/2000/svg" height="860pt" version="1.1" viewBox="0 -7 860.00209 860" width="860pt">
<g id="surface1">
<path d="M 519.300781 258.644531 C 521.007812 263.503906 520.222656 268.902344 517.164062 273.042969 C 506.96875 286.808594 501.480469 303.480469 501.496094 320.605469 C 501.496094 331.035156 503.582031 341.378906 507.601562 350.996094 C 543.371094 355.472656 576.488281 372.183594 601.324219 398.300781 C 618.359375 394.234375 633.578125 384.691406 644.640625 371.140625 C 647.589844 367.488281 652.019531 365.375 656.71875 365.375 C 661.398438 365.375 665.828125 367.488281 668.773438 371.140625 C 689.921875 397.425781 725.261719 407.707031 757.222656 396.859375 C 757.105469 396.53125 756.992188 395.550781 756.921875 395.214844 C 753.941406 384.152344 757.351562 372.363281 765.746094 364.578125 C 774.273438 356.425781 786.683594 353.769531 797.792969 357.75 L 801.53125 359.042969 C 808.378906 347.402344 811.964844 334.125 811.90625 320.605469 C 811.917969 303.46875 806.417969 286.804688 796.230469 273.035156 C 793.183594 268.886719 792.394531 263.5 794.121094 258.644531 C 795.84375 253.800781 799.859375 250.113281 804.847656 248.828125 C 830.078125 242.328125 850.621094 224.050781 860.003906 199.738281 C 849.167969 194.351562 842.304688 183.296875 842.265625 171.203125 C 842.222656 159.285156 848.964844 148.378906 859.644531 143.074219 C 844.160156 102.210938 798.941406 81.09375 757.65625 95.464844 C 752.765625 97.210938 747.308594 96.394531 743.136719 93.273438 C 738.980469 90.148438 736.648438 85.144531 736.953125 79.953125 L 737.097656 78.210938 C 737.1875 77.214844 737.265625 76.238281 737.265625 75.226562 C 737.128906 41.855469 716.527344 11.980469 685.378906 0 C 679.910156 10.808594 668.832031 17.644531 656.726562 17.707031 C 644.800781 17.742188 633.902344 11.007812 628.59375 0.34375 C 597.207031 11.847656 576.308594 41.683594 576.199219 75.101562 C 576.199219 76.171875 576.273438 77.234375 576.355469 78.289062 L 576.445312 79.9375 C 576.753906 85.128906 574.425781 90.132812 570.269531 93.265625 C 566.09375 96.375 560.640625 97.199219 555.734375 95.453125 C 514.515625 81.210938 469.417969 101.988281 453.429688 142.550781 C 464.230469 148.027344 471.066406 159.082031 471.132812 171.191406 C 471.175781 183.113281 464.4375 194.03125 453.753906 199.316406 C 462.714844 223.878906 483.234375 242.425781 508.5625 248.875 C 513.539062 250.148438 517.550781 253.820312 519.300781 258.644531 Z M 675.039062 318.695312 L 644.015625 318.695312 L 644.015625 301.988281 L 675.039062 301.988281 Z M 725.359375 297.855469 L 713.539062 286.050781 L 735.550781 264.097656 L 747.355469 275.902344 Z M 751.429688 194.574219 L 768.132812 194.574219 L 768.132812 225.609375 L 751.429688 225.609375 Z M 725.359375 122.320312 L 747.300781 144.273438 L 735.488281 156.085938 L 713.539062 134.070312 Z M 644.015625 101.492188 L 675.039062 101.492188 L 675.039062 118.183594 L 644.015625 118.183594 Z M 644.015625 172.640625 L 644.015625 134.898438 L 675.039062 134.898438 L 675.039062 172.640625 L 701.738281 145.949219 L 723.671875 167.882812 L 696.976562 194.574219 L 734.714844 194.574219 L 734.714844 225.609375 L 696.976562 225.609375 L 723.671875 252.285156 L 701.738281 274.21875 L 675.039062 247.550781 L 675.039062 285.265625 L 644.015625 285.265625 L 644.015625 247.550781 L 617.332031 274.21875 L 595.394531 252.285156 L 622.082031 225.609375 L 584.34375 225.609375 L 584.34375 194.574219 L 622.082031 194.574219 L 595.394531 167.882812 L 617.332031 145.949219 Z M 593.699219 122.320312 L 605.519531 134.132812 L 583.507812 156.085938 L 571.707031 144.273438 Z M 583.507812 264.097656 L 605.519531 286.117188 L 593.699219 297.917969 L 571.757812 275.964844 Z M 550.914062 194.574219 L 567.628906 194.574219 L 567.628906 225.609375 L 550.914062 225.609375 Z M 550.914062 194.574219 " style=" stroke:none;fill-rule:nonzero;fill:rgb(0%,0%,0%);fill-opacity:1;" />
<path d="M 666.449219 226.796875 L 676.238281 217.011719 L 676.238281 203.167969 L 666.449219 193.375 L 652.601562 193.375 L 642.820312 203.167969 L 642.820312 217.011719 L 652.601562 226.796875 Z M 666.449219 226.796875 " style=" stroke:none;fill-rule:nonzero;fill:rgb(0%,0%,0%);fill-opacity:1;" />
<path d="M 318.195312 551.421875 C 318.195312 559.992188 311.257812 566.9375 302.675781 566.9375 C 294.109375 566.9375 287.167969 559.992188 287.167969 551.421875 C 287.167969 542.851562 294.109375 535.902344 302.675781 535.902344 C 311.257812 535.902344 318.195312 542.851562 318.195312 551.421875 Z M 318.195312 551.421875 " style=" stroke:none;fill-rule:nonzero;fill:rgb(0%,0%,0%);fill-opacity:1;" />
<path d="M 4.511719 539.433594 C 1.058594 540.964844 -0.734375 544.824219 0.324219 548.457031 C 14.492188 586.246094 46.160156 614.78125 85.207031 624.980469 C 90.191406 626.273438 94.179688 629.933594 95.914062 634.777344 C 97.640625 639.613281 96.867188 644.988281 93.828125 649.132812 C 65.246094 688.097656 62.0625 740.1875 85.683594 782.34375 C 87.566406 785.335938 91.253906 786.625 94.59375 785.453125 L 106.183594 781.582031 C 119.035156 777.308594 133.195312 780.074219 143.496094 788.867188 C 153.796875 797.675781 158.738281 811.230469 156.511719 824.597656 L 155.121094 832.921875 C 154.414062 836.582031 156.511719 840.191406 160.03125 841.394531 C 171.097656 844.59375 182.554688 846.21875 194.070312 846.214844 C 231.597656 846.265625 267.113281 829.265625 290.609375 800.007812 C 293.558594 796.351562 297.996094 794.238281 302.675781 794.238281 C 307.367188 794.238281 311.808594 796.351562 314.757812 800.007812 C 347.503906 840.683594 402.25 856.464844 451.617188 839.457031 C 455.101562 837.925781 456.847656 834 455.660156 830.402344 C 451.421875 816.46875 455.390625 801.335938 465.910156 791.257812 C 476.421875 781.179688 491.707031 777.875 505.453125 782.699219 L 511.085938 784.6875 C 514.40625 785.972656 518.191406 784.703125 520.070312 781.664062 C 543.28125 739.605469 539.96875 687.871094 511.554688 649.132812 C 508.519531 644.988281 507.742188 639.613281 509.476562 634.777344 C 511.207031 629.933594 515.195312 626.273438 520.171875 624.980469 C 559.214844 614.777344 590.871094 586.246094 605.054688 548.476562 C 606.128906 544.921875 604.429688 541.117188 601.078125 539.539062 C 587.925781 533.046875 579.558594 519.667969 579.511719 504.996094 C 579.460938 490.320312 587.738281 476.882812 600.871094 470.324219 L 601.039062 470.234375 C 604.476562 468.640625 606.175781 464.738281 605.007812 461.128906 C 581.296875 397.632812 510.875 365.066406 447.125 388.117188 C 442.222656 389.863281 436.777344 389.039062 432.609375 385.929688 C 428.449219 382.800781 426.125 377.800781 426.429688 372.613281 L 426.574219 370.335938 C 426.695312 368.648438 426.828125 366.96875 426.828125 365.28125 C 426.640625 313.671875 394.683594 267.492188 346.429688 249.160156 C 342.84375 248.007812 338.949219 249.699219 337.347656 253.113281 C 330.847656 266.257812 317.464844 274.605469 302.792969 274.636719 C 288.125 274.6875 274.691406 266.410156 268.128906 253.292969 C 266.570312 249.789062 262.625 248.011719 258.957031 249.160156 C 210.730469 267.488281 178.757812 313.632812 178.558594 365.242188 C 178.558594 366.925781 178.683594 368.605469 178.804688 370.28125 L 178.953125 372.558594 C 179.25 377.761719 176.933594 382.753906 172.765625 385.878906 C 168.605469 388.996094 163.160156 389.816406 158.257812 388.066406 C 94.535156 365.023438 24.128906 397.535156 0.367188 461 C -0.804688 464.601562 0.910156 468.507812 4.34375 470.105469 C 17.488281 476.601562 25.8125 489.984375 25.851562 504.640625 C 25.886719 519.308594 17.628906 532.738281 4.511719 539.304688 Z M 473.347656 535.902344 L 504.378906 535.902344 L 504.378906 566.9375 L 473.347656 566.9375 Z M 318.195312 753.117188 L 287.167969 753.117188 L 287.167969 722.089844 L 318.195312 722.089844 Z M 434.328125 705.019531 L 412.378906 683.082031 L 434.328125 661.140625 L 456.28125 683.066406 Z M 434.328125 397.820312 L 456.28125 419.769531 L 434.347656 441.703125 L 412.398438 419.769531 Z M 287.167969 349.726562 L 318.195312 349.726562 L 318.195312 380.75 L 287.167969 380.75 Z M 214.910156 441.703125 L 282.746094 509.527344 C 284.183594 508.847656 285.660156 508.25 287.167969 507.734375 L 287.167969 411.785156 L 318.195312 411.785156 L 318.195312 507.734375 C 319.707031 508.25 321.179688 508.855469 322.617188 509.546875 L 390.445312 441.703125 L 412.378906 463.652344 L 344.570312 531.484375 C 345.261719 532.925781 345.863281 534.394531 346.386719 535.902344 L 442.3125 535.902344 L 442.3125 566.9375 L 346.367188 566.9375 C 345.84375 568.445312 345.25 569.917969 344.558594 571.355469 L 412.378906 639.1875 L 390.445312 661.125 L 322.617188 593.308594 C 321.179688 594.003906 319.707031 594.609375 318.195312 595.125 L 318.195312 691.058594 L 287.167969 691.058594 L 287.167969 595.109375 C 285.660156 594.59375 284.183594 593.984375 282.746094 593.296875 L 214.910156 661.125 L 192.96875 639.1875 L 260.792969 571.355469 C 260.109375 569.914062 259.503906 568.445312 258.980469 566.9375 L 163.050781 566.9375 L 163.050781 535.902344 L 258.980469 535.902344 C 259.503906 534.394531 260.113281 532.925781 260.804688 531.484375 L 192.96875 463.652344 Z M 171.035156 397.820312 L 192.96875 419.75 L 171.035156 441.691406 L 149.082031 419.769531 Z M 171.035156 661.113281 L 192.96875 683.050781 L 171.035156 705.019531 L 149.082031 683.066406 Z M 100.980469 535.902344 L 132.015625 535.902344 L 132.015625 566.9375 L 100.980469 566.9375 Z M 100.980469 535.902344 " style=" stroke:none;fill-rule:nonzero;fill:rgb(0%,0%,0%);fill-opacity:1;" />
</g>
</svg>