<?xml version="1.0" standalone="no"?>
<!DOCTYPE svg PUBLIC "-//W3C//DTD SVG 20010904//EN"
 "http://www.w3.org/TR/2001/REC-SVG-20010904/DTD/svg10.dtd">
<svg version="1.0" xmlns="http://www.w3.org/2000/svg"
 width="700.000000pt" height="700.000000pt" viewBox="0 0 700.000000 700.000000"
 preserveAspectRatio="xMidYMid meet">
<metadata>
Created by potrace 1.11, written by Peter Selinger 2001-2013
</metadata>
<g transform="translate(0.000000,700.000000) scale(0.100000,-0.100000)"
fill="#000000" stroke="none">
<path d="M1740 6748 c-6 -24 -13 -49 -15 -55 -18 -54 -26 -347 -12 -443 36
-251 170 -458 393 -606 104 -69 314 -168 314 -148 0 2 -15 26 -33 52 -112 161
-256 455 -336 687 l-32 90 29 -30 c153 -163 383 -500 476 -698 10 -21 19 -37
21 -35 18 18 30 370 15 433 -5 22 -12 56 -15 75 -15 93 -76 230 -140 316 -87
117 -246 238 -416 318 -83 39 -208 86 -230 86 -5 0 -13 -19 -19 -42z"/>
<path d="M5165 6769 c-90 -30 -256 -112 -339 -168 -84 -57 -199 -166 -243
-231 -68 -101 -125 -246 -141 -359 -14 -97 -5 -431 12 -448 2 -2 22 34 46 80
73 137 61 117 177 295 74 112 195 269 266 347 l37 40 -24 -70 c-84 -246 -217
-519 -361 -739 l-19 -29 24 8 c61 19 220 100 295 151 228 153 352 347 393 614
23 152 -11 521 -48 527 -8 2 -42 -6 -75 -18z"/>
<path d="M3433 6298 c-140 -172 -206 -332 -205 -498 1 -165 68 -333 199 -498
18 -22 19 -19 19 130 0 164 9 308 24 373 5 22 9 40 9 40 0 0 3 24 7 53 3 28
10 52 13 52 22 0 58 -327 56 -521 0 -105 2 -146 10 -137 125 162 176 267 199
408 20 121 10 206 -37 330 -29 75 -108 215 -136 240 -3 3 -23 26 -44 53 -21
26 -42 47 -47 47 -5 0 -35 -33 -67 -72z"/>
<path d="M2712 5103 c-4 -10 -7 -58 -7 -108 1 -69 6 -100 22 -135 27 -60 85
-115 157 -152 l59 -30 -20 34 c-35 58 -83 157 -103 213 -11 29 -11 29 9 11 23
-21 121 -160 121 -173 0 -4 9 -19 20 -33 l19 -25 -2 95 c-2 84 -6 101 -32 149
-35 63 -79 102 -161 141 -73 35 -73 35 -82 13z"/>
<path d="M4238 5105 c-92 -34 -161 -93 -202 -173 -19 -37 -32 -155 -22 -196 6
-26 8 -25 34 24 28 53 134 201 140 196 3 -4 -37 -116 -48 -131 -4 -5 -23 -40
-44 -78 l-37 -67 28 12 c127 55 195 140 209 260 7 59 -3 169 -14 167 -4 0 -24
-6 -44 -14z"/>
<path d="M1468 5105 c-2 -2 -32 -6 -68 -9 -36 -3 -78 -9 -95 -12 -16 -3 -37
-7 -45 -9 -20 -3 -16 -30 20 -123 45 -118 114 -227 194 -306 133 -134 282
-191 496 -189 63 0 182 12 188 17 1 2 -30 20 -70 41 -89 46 -262 153 -266 166
-2 5 -8 9 -14 9 -13 0 -210 162 -204 168 3 3 43 -10 88 -27 173 -67 335 -147
452 -222 33 -22 61 -37 63 -35 6 6 -33 98 -70 162 -136 240 -315 353 -580 367
-47 3 -87 3 -89 2z"/>
<path d="M5375 5099 c-85 -15 -98 -19 -148 -35 -169 -56 -316 -207 -411 -422
-15 -35 -26 -65 -24 -67 1 -2 39 19 83 46 72 45 234 128 339 174 58 26 178 66
182 62 8 -8 -192 -165 -291 -228 -22 -14 -58 -37 -80 -52 -22 -14 -73 -42
-112 -63 -40 -21 -72 -38 -70 -40 8 -7 138 -17 222 -16 117 1 245 34 335 85
121 69 238 215 314 392 52 122 52 132 13 141 -17 5 -36 9 -42 10 -5 0 -31 4
-56 8 -64 11 -206 13 -254 5z"/>
<path d="M4335 4780 c18 -115 22 -196 20 -370 -2 -107 -5 -204 -8 -215 -3 -11
-8 -47 -12 -80 -3 -33 -13 -89 -20 -125 -8 -37 -16 -77 -18 -90 -48 -259 -215
-654 -398 -941 -73 -115 -193 -279 -247 -338 l-29 -32 -58 88 c-50 77 -210
291 -264 356 -114 135 -167 193 -296 322 -172 172 -228 222 -405 361 -85 67
-338 238 -395 266 -16 9 -66 35 -110 58 -83 45 -248 120 -319 146 -59 21 -158
53 -154 49 1 -2 50 -40 108 -85 360 -281 641 -576 855 -900 135 -203 228 -383
308 -595 63 -170 126 -414 142 -551 3 -28 7 -60 10 -72 22 -116 22 -486 0
-652 -3 -19 -7 -57 -10 -84 -32 -275 -160 -685 -301 -963 -34 -68 -59 -123
-55 -124 3 -1 162 -2 353 -2 l347 -2 13 25 c7 14 28 52 47 85 147 262 384 771
523 1125 27 69 53 134 58 145 23 51 175 489 195 565 2 8 18 62 35 120 55 185
134 505 156 630 2 14 7 39 11 55 4 17 8 37 9 45 5 27 17 105 19 120 1 8 5 39
9 69 4 30 9 62 11 72 3 16 10 80 21 184 20 207 20 624 -1 733 -1 9 -6 40 -9
67 -6 46 -19 133 -21 145 -1 3 -7 32 -14 65 -18 83 -66 250 -91 310 -18 44
-19 46 -15 15z"/>
<path d="M3295 4226 c-207 -64 -313 -269 -269 -521 35 -199 157 -366 330 -452
68 -33 85 -37 166 -40 68 -2 101 2 139 17 239 90 320 406 177 692 -46 91 -151
207 -228 251 -98 55 -232 78 -315 53z"/>
<path d="M650 4124 c-215 -41 -427 -155 -623 -335 l-28 -25 60 -56 c67 -63
215 -165 300 -208 335 -168 666 -132 1001 109 52 37 95 71 97 77 2 5 -28 7
-74 4 -147 -10 -381 -1 -538 21 -38 5 -86 12 -105 14 -19 3 -57 9 -85 15 -27
5 -60 11 -72 13 -58 8 -27 18 132 43 17 2 41 6 55 9 116 22 291 33 493 31 108
0 197 1 197 2 0 15 -181 138 -270 184 -87 45 -179 78 -265 95 -33 7 -248 12
-275 7z"/>
<path d="M6071 4114 c-86 -18 -153 -41 -231 -77 -76 -36 -246 -146 -277 -179
l-22 -23 212 0 c189 0 299 -6 404 -20 130 -19 159 -23 235 -39 43 -9 57 -15
43 -19 -37 -11 -180 -35 -250 -42 -38 -4 -72 -9 -75 -10 -22 -13 -386 -24
-498 -15 -43 3 -71 1 -69 -4 2 -5 46 -40 97 -77 240 -172 478 -240 715 -205
66 9 209 58 283 95 84 43 228 141 300 205 l63 56 -43 41 c-140 136 -355 258
-534 305 -88 23 -266 27 -353 8z"/>
<path d="M4733 3875 c-46 -14 -123 -56 -140 -77 -9 -11 4 -13 70 -12 72 0 239
-20 212 -25 -73 -16 -138 -22 -219 -22 l-80 0 48 -34 c129 -92 262 -85 401 21
51 40 52 31 -13 85 -70 59 -198 88 -279 64z"/>
<path d="M1859 3066 c-2 -2 -24 -6 -49 -9 -191 -24 -367 -161 -483 -377 -40
-74 -90 -208 -82 -220 21 -34 353 -46 465 -17 207 55 362 195 466 424 19 41
34 79 34 84 0 6 -15 0 -32 -13 -18 -13 -42 -28 -53 -34 -11 -6 -49 -28 -85
-49 -143 -82 -440 -207 -440 -185 0 6 3 10 8 10 4 0 25 17 47 37 101 92 283
215 431 293 55 29 69 40 56 45 -18 8 -276 18 -283 11z"/>
<path d="M4928 3065 c-2 -2 -20 -5 -41 -7 -20 -1 -37 -5 -37 -8 0 -3 17 -14
38 -25 91 -47 244 -144 327 -206 207 -156 220 -172 107 -129 -164 61 -292 121
-421 199 -57 35 -105 60 -108 58 -2 -3 16 -47 40 -99 112 -234 270 -366 492
-414 49 -10 246 -13 295 -4 25 4 63 11 85 14 22 4 43 10 48 15 10 10 -36 137
-80 221 -140 264 -336 385 -629 388 -62 1 -113 -1 -116 -3z"/>
<path d="M2360 2016 c-370 -152 -587 -394 -643 -716 -14 -80 -16 -332 -3 -400
20 -107 29 -147 34 -157 9 -15 148 30 258 85 323 159 508 390 552 687 18 125
2 481 -20 444 -2 -2 -25 -47 -52 -99 -94 -181 -236 -392 -385 -570 -85 -102
-87 -92 -21 81 64 169 189 423 275 558 36 57 64 105 63 107 -2 1 -28 -8 -58
-20z"/>
<path d="M4580 2035 c0 -1 30 -49 66 -106 88 -140 211 -392 278 -569 30 -80
53 -146 51 -149 -2 -2 -16 11 -31 29 -15 18 -33 37 -39 44 -7 6 -45 54 -86
106 -105 134 -216 304 -297 453 l-69 127 -7 -42 c-15 -94 -15 -342 0 -426 33
-186 102 -320 229 -448 123 -125 303 -233 495 -298 85 -28 82 -30 100 59 20
103 25 166 25 300 -1 174 -23 285 -85 420 -73 158 -247 323 -445 423 -64 32
-185 83 -185 77z"/>
</g>
</svg>
